PathFileType	4	(X/Y/Z)	c:/Users/goper/Files/vsCode/490R/osim_files/C03/C03_Slow_04.trc
DataRate	CameraRate	NumFrames	NumMarkers	Units                	OrigDataRate	OrigDataStartFrame	OrigNumFrames
250.00	250.00	9	36	mm	250.0	1515	3028
                Frame#	Time	LPSIS			LASIS			LTH1			LTH2			LTH3			LTH4			LLFE			LMFE			LSH1			LSH2			LSH3			LSH4			LLMAL			LMMAL			LCAL			LMTP5			LTOE			LMTP1			RPSIS			RASIS			RTH1			RTH2			RTH3			RTH4			RLFE			RMFE			RSH1			RSH2			RSH3			RSH4			RLMAL			RMMAL			RCAL			RMTP1			RTOE			RMTP5		
		X1	Y1	Z1	X2	Y2	Z2	X3	Y3	Z3	X4	Y4	Z4	X5	Y5	Z5	X6	Y6	Z6	X7	Y7	Z7	X8	Y8	Z8	X9	Y9	Z9	X10	Y10	Z10	X11	Y11	Z11	X12	Y12	Z12	X13	Y13	Z13	X14	Y14	Z14	X15	Y15	Z15	X16	Y16	Z16	X17	Y17	Z17	X18	Y18	Z18	X19	Y19	Z19	X20	Y20	Z20	X21	Y21	Z21	X22	Y22	Z22	X23	Y23	Z23	X24	Y24	Z24	X25	Y25	Z25	X26	Y26	Z26	X27	Y27	Z27	X28	Y28	Z28	X29	Y29	Z29	X30	Y30	Z30	X31	Y31	Z31	X32	Y32	Z32	X33	Y33	Z33	X34	Y34	Z34	X35	Y35	Z35	X36	Y36	Z36

1515	6.05600	1123.66833	1033.53906	324.79681	940.47876	977.28900	357.17752	901.08228	642.43134	399.23633	868.16327	590.58112	389.11154	833.18140	677.36200	389.17380	808.85101	621.73529	378.80768	816.91553	529.21582	378.77957	818.37036	519.47565	268.28351	883.89148	348.62314	395.26419	879.97131	302.35837	392.76120	823.24481	352.00443	400.47781	828.06317	303.73737	397.73251	844.55823	138.70746	380.87143	825.33905	148.95367	303.56107	911.66028	93.76399	348.56628	710.87103	84.69098	398.81686	682.98059	106.94538	344.30444	707.11841	89.26191	306.07202	1120.14319	1032.57422	212.42299	950.45129	985.42310	152.51123	1133.93848	620.57080	145.81441	1145.35535	561.32947	161.36200	1070.95874	608.86884	130.97771	1075.35876	548.47552	139.48196	1087.87305	480.27310	164.04022	1107.70288	503.93381	271.65567	1201.65601	309.53897	156.48364	1205.49426	262.45041	161.32458	1140.23120	296.29837	155.47322	1153.17175	255.09006	160.40590	1186.68042	106.27626	190.09343	1184.24646	107.61377	270.42047	1263.18018	71.98976	220.94933	1058.56201	53.34222	270.75781	1031.53101	69.21797	235.41798	1080.23511	43.72471	167.68529
1516	6.06000	1119.08838	1032.65881	325.16827	936.88837	976.10175	356.69223	896.93750	641.11383	399.68741	864.00641	589.22778	389.77237	829.26202	676.13287	389.70706	804.99823	620.50409	379.55353	812.49670	528.00153	379.66000	814.28522	518.29321	269.15164	874.99304	345.76337	396.39432	870.01422	299.64926	393.79858	814.46582	350.65573	401.15839	818.29883	302.29132	398.46854	830.73364	136.64935	381.43356	812.32843	147.85242	303.90237	897.76172	91.30544	349.79584	695.68909	85.35569	398.22531	668.76105	108.85251	343.95584	692.66431	90.84470	305.70724	1115.64490	1031.88135	212.87282	946.14624	984.72162	152.60115	1130.98279	620.49316	146.00948	1142.60962	561.32111	161.53374	1068.06995	608.55109	131.18217	1072.73193	548.17578	139.70651	1085.57593	480.06448	164.47748	1105.29602	503.74298	271.73141	1200.40540	309.86664	156.72920	1204.32397	262.77789	161.98022	1139.48950	296.10681	155.85756	1152.62183	254.99115	160.07986	1186.54834	106.45222	189.99956	1183.96497	107.73271	270.59747	1263.07751	72.19939	221.14195	1058.49536	53.29283	270.78781	1031.44873	69.23532	235.42899	1080.24780	43.68323	167.69293
1517	6.06400	1114.48560	1031.80884	325.56644	931.12732	975.65710	357.32556	892.31824	639.28821	399.89151	860.04370	588.09003	390.31424	825.44012	674.89056	390.28433	803.20795	621.18359	383.09460	808.08447	526.65778	380.49487	810.23712	516.98151	269.97275	866.30396	343.06143	397.39331	860.25433	297.10794	394.78711	805.77972	349.36340	401.76849	808.54163	300.85938	399.10678	817.32703	135.07956	381.96909	799.37396	146.76236	304.35376	883.29504	88.07269	350.45233	680.92419	86.86768	398.10330	655.11096	111.07662	343.65140	678.82245	92.48799	305.23123	1111.17334	1031.17419	213.28532	939.04388	984.27002	153.17644	1128.11414	620.51123	146.13266	1140.02954	561.35095	161.69890	1065.19006	608.27539	131.37897	1070.04382	547.86725	139.96288	1083.63855	479.76251	164.35365	1102.92542	503.59705	271.97128	1199.63965	310.34689	156.48230	1203.27051	263.13980	162.19899	1137.63318	296.48688	156.27831	1151.51025	254.99313	160.15991	1186.36841	106.65871	190.19957	1183.75403	107.94134	270.85770	1262.99536	72.80347	221.11812	1058.58557	52.63766	270.31894	1031.36145	69.25066	235.44135	1080.23828	43.70658	167.69888
1518	6.06800	1109.90930	1030.88586	325.94507	927.59778	974.42365	356.89645	889.18195	638.50909	400.95917	856.24396	586.77826	391.12653	822.99487	675.27203	393.03671	798.49042	619.36523	383.25421	803.78436	525.27380	381.39566	806.31915	515.49475	270.84348	857.71179	340.44931	398.39963	850.58624	294.59027	395.71072	797.40118	348.12109	402.50031	798.92773	299.53796	399.85211	803.90790	133.44110	382.54269	786.65765	145.81354	304.87857	868.06451	84.31459	351.21552	666.28931	88.36884	397.90152	640.93079	113.24621	343.12473	664.75964	94.53821	304.96619	1106.77478	1030.45752	213.77077	937.59656	983.29535	152.74857	1125.13171	620.44275	146.33923	1137.23767	561.39301	161.86348	1062.30359	607.99799	131.56078	1067.31421	547.53522	140.23190	1081.16443	479.54196	164.83795	1101.24524	504.12143	272.21634	1197.95825	310.44067	157.12100	1202.33044	263.50699	162.46147	1136.86646	296.25180	155.93423	1150.48096	255.28751	160.92583	1186.19202	106.87479	190.39307	1183.19250	107.87891	271.12149	1262.92639	73.08144	221.27478	1058.51233	52.57722	270.33337	1031.26880	69.26331	235.45480	1080.20581	43.69050	167.69948
1519	6.07200	1105.22144	1029.94373	326.43433	0.00000	0.00000	0.00000	884.65454	636.50568	401.37186	852.52722	585.25293	392.05029	817.76508	671.88544	391.51404	793.74139	616.07489	381.81168	799.64575	523.90063	382.22159	802.33661	513.99493	271.64606	849.36139	337.90292	399.38968	841.09979	292.13235	396.67065	789.13611	346.85989	403.09875	789.50995	298.50940	400.92157	790.67053	132.02325	383.12292	774.05927	144.94611	305.31027	854.40143	81.79626	352.00488	651.79010	90.02670	397.65353	627.29309	115.82734	342.95007	650.24786	96.97622	304.32150	1102.27222	1029.70312	214.23047	932.28662	982.26862	152.81001	1122.08264	620.41992	146.50452	1134.52515	561.34918	162.09377	1059.36926	607.73901	131.73911	1064.60059	547.25928	140.49388	1079.10999	479.17075	164.63023	1098.70935	503.87357	272.36871	1196.95825	310.80148	156.78333	1201.27747	263.86444	162.74393	1135.93652	296.11087	156.36046	1149.43628	255.32469	161.11906	1186.00220	107.14120	190.62219	1182.84827	108.02515	271.32095	1262.74268	73.33048	221.49594	1058.39551	52.49512	270.36609	1031.17053	69.27258	235.46913	1080.24109	43.66665	167.68346
1520	6.07600	1100.63000	1028.98230	326.88629	918.14148	972.84485	357.22339	881.79187	635.64832	402.59955	849.00824	583.76843	392.97433	814.13678	670.37646	392.36276	790.10114	614.42139	382.66104	795.54926	522.42706	383.12277	798.51752	512.45386	272.54715	841.05225	335.35760	400.27014	831.88666	289.81604	397.60370	781.18799	345.86313	403.98990	780.51227	297.33786	401.66388	777.48163	130.73894	383.73029	761.38403	144.16165	306.02805	839.36987	78.44381	352.90936	638.03552	92.08472	397.64471	614.02649	118.65553	342.79416	636.71924	99.38805	304.16089	1097.76636	1028.90210	214.72305	931.78400	980.94458	152.44385	1119.03992	620.31006	146.72049	1131.70837	561.39313	162.30737	1056.35291	607.35583	131.99719	1061.75012	546.90607	140.75656	1076.70837	478.94608	165.11162	1095.43481	503.22549	272.54520	1195.35217	311.17709	157.75768	1200.48828	264.28210	162.62357	1134.02673	296.52151	156.74461	1148.73059	255.20711	160.77966	1185.83716	107.38811	190.81264	1182.54175	108.19742	271.50955	1262.58569	73.62549	221.69176	1058.30542	52.45331	270.41055	1031.06677	69.27780	235.48409	1080.19189	43.68343	167.67464
1521	6.08000	1095.97974	1028.00439	327.33322	912.41937	972.40118	357.98291	878.20557	634.10315	403.29703	845.52716	582.14581	393.87259	810.44232	668.65607	393.10785	786.58484	612.64716	383.59760	791.56525	520.79999	383.97324	794.62170	510.67935	273.40906	833.14850	332.96799	401.13702	822.92377	287.63931	398.41290	773.41931	344.71356	404.70337	771.69788	296.24411	402.49008	764.32935	129.22725	384.28610	749.13953	143.64590	306.69403	825.28583	75.74649	353.76392	623.55273	94.01299	397.33997	601.01807	121.74547	342.79831	623.27539	102.09845	304.19333	1093.38208	1028.13611	215.20087	925.78046	980.60498	152.46411	1116.02698	620.32349	146.87537	1128.85632	561.38123	162.52156	1053.29272	606.95404	132.25761	1058.98560	546.60602	141.06233	1074.10046	478.50916	165.39378	1092.90540	503.17084	272.80481	1194.04333	311.60645	158.05367	1199.52979	264.73846	162.99648	1133.16431	296.25214	157.22498	1147.69556	255.21666	160.93074	1185.86975	107.59113	190.71495	1182.14905	108.32199	271.70322	1262.47986	73.95164	221.92183	1058.22034	52.37210	270.43103	1030.95691	69.27829	235.49947	1080.20813	43.66780	167.67703
1522	6.08400	1091.28210	1026.93848	327.86276	908.68329	971.09088	357.61758	874.65338	632.49982	404.04132	842.15717	580.46509	394.78668	806.91718	666.90137	394.16254	784.07819	612.44244	386.90668	787.83923	519.20532	384.95544	790.81335	508.90698	274.29648	825.38422	330.49927	401.94104	814.14050	285.42200	399.20721	765.95117	343.64902	405.55017	763.20361	295.22314	403.34348	751.60229	128.16321	385.00787	736.98206	143.18588	307.37335	811.21448	73.12278	354.57419	609.96490	96.44768	397.43451	588.35760	124.84362	342.89362	610.21399	104.95776	304.23557	1088.75415	1027.24097	215.79706	921.57251	979.81146	152.57808	1112.84875	620.13184	147.17255	1126.03857	561.29675	162.83023	1050.26831	606.67017	132.50122	1056.15210	546.24841	141.33627	1071.68469	478.17279	165.59735	1089.53467	502.31119	272.67032	1192.63977	311.89346	158.34396	1198.01917	264.96307	163.73828	1132.18176	296.10690	156.94467	1146.38794	255.31636	161.77870	1185.63721	107.85458	190.94919	1182.00488	108.73013	271.82736	1262.37854	74.22467	222.13176	1058.14697	52.33394	270.49051	1030.84094	69.27335	235.51494	1079.97363	43.99334	167.45396
1523	6.08800	1086.56079	1025.90088	328.33755	902.99799	970.56354	358.40720	870.50854	630.40051	404.33444	838.77625	578.71436	395.58624	804.70416	666.82477	397.18225	781.70294	610.93488	388.60898	784.22510	517.63342	385.85406	787.17853	507.18796	275.09528	817.87378	328.19904	402.67670	805.62103	283.30954	399.98334	758.74377	342.57327	406.36191	754.86652	294.29877	404.13446	739.08435	127.31871	385.75623	725.05347	142.92970	308.06586	797.44983	70.84180	355.44669	596.64606	99.08955	397.66769	575.95819	128.25583	343.07962	597.48956	107.91804	304.42334	1084.32227	1026.42944	216.30023	917.33954	979.11395	152.73801	1109.66028	620.05676	147.41212	1123.03857	561.23560	163.13979	1047.14734	606.28516	132.71071	1053.29529	545.94073	141.57635	1069.29565	477.85651	165.81644	1087.53455	502.88049	273.05359	1191.50977	312.25867	158.00714	1196.98364	265.44348	163.87971	1130.80701	296.12369	157.20720	1145.46484	255.42030	162.09293	1185.07104	108.20030	191.41495	1181.66260	108.95695	272.01736	1262.25696	74.25665	222.59290	1058.07104	52.32577	270.49265	1030.71875	69.26231	235.53030	1079.98730	44.00861	167.46007
